<?xml version="1.0" encoding="utf-8"?>
<!-- Generator: Adobe Illustrator 16.0.0, SVG Export Plug-In . SVG Version: 6.00 Build 0)  -->
<!DOCTYPE svg PUBLIC "-//W3C//DTD SVG 1.1//EN" "http://www.w3.org/Graphics/SVG/1.1/DTD/svg11.dtd">
<svg version="1.1" id="Layer_1" xmlns="http://www.w3.org/2000/svg" xmlns:xlink="http://www.w3.org/1999/xlink" x="0px" y="0px"
	 width="95px" height="95px" viewBox="0 0 95 95" enable-background="new 0 0 95 95" xml:space="preserve">
<g>
	<circle fill="#FFFFFF" cx="48.005" cy="48.24" r="32.444"/>
	<g>
		<linearGradient id="XMLID_2_" gradientUnits="userSpaceOnUse" x1="48.0059" y1="1.0562" x2="48.0059" y2="94.5005">
			<stop  offset="0" style="stop-color:#8AABDA"/>
			
			<stop  offset="1" style="stop-color:#161E57"/>
		</linearGradient>
		<path id="XMLID_1994_" fill="url(#XMLID_2_)" d="M1.284,47.779l0.061-2.396l0.179-2.37l0.298-2.341l0.411-2.299l0.522-2.267
			l0.632-2.22l0.736-2.172l0.836-2.124l0.936-2.069l1.033-2.019l1.125-1.956l1.213-1.896l1.306-1.833l1.381-1.757l1.467-1.696
			l1.548-1.622l1.622-1.548l1.696-1.466l1.757-1.381l1.833-1.306l1.896-1.213L25.729,6.7l2.019-1.033l2.069-0.936l2.124-0.836
			l2.172-0.735l2.221-0.632l2.267-0.522l2.299-0.411l2.341-0.298l2.37-0.179l2.395-0.061L50.4,1.117l2.369,0.179l2.34,0.298
			l2.301,0.411l2.265,0.522l2.224,0.632l2.17,0.735l2.124,0.836l2.071,0.937L70.281,6.7l1.954,1.126l1.896,1.213l1.832,1.304
			l1.761,1.383l1.695,1.468l1.62,1.546l1.548,1.622l1.466,1.693l1.386,1.76l1.304,1.836l1.213,1.893l1.124,1.953l1.035,2.019
			l0.937,2.072l0.84,2.127l0.73,2.173l0.634,2.216l0.521,2.267l0.411,2.299l0.298,2.341l0.179,2.37l0.062,2.396l-0.062,2.395
			l-0.179,2.368l-0.298,2.343l-0.411,2.299l-0.521,2.266l-0.634,2.22l-0.73,2.169l-0.84,2.131l-0.938,2.072l-1.034,2.017
			l-1.124,1.954l-1.213,1.893l-1.302,1.834l-1.388,1.765l-1.468,1.693l-1.546,1.62l-1.62,1.545l-1.693,1.465l-1.763,1.388
			l-1.834,1.305l-1.895,1.212l-1.951,1.126l-2.018,1.032l-2.074,0.937l-2.128,0.84l-2.17,0.732l-2.22,0.633l-2.265,0.521
			l-2.301,0.411l-2.34,0.298L50.4,94.439L48.005,94.5l-2.395-0.061l-2.37-0.179l-2.341-0.298l-2.299-0.411l-2.267-0.521
			l-2.217-0.633l-2.172-0.732l-2.127-0.84l-2.072-0.935l-2.019-1.034l-1.952-1.126l-1.894-1.212l-1.836-1.306l-1.76-1.387
			l-1.694-1.463l-1.622-1.547l-1.546-1.62l-1.469-1.695l-1.383-1.763l-1.304-1.831l-1.213-1.896l-1.125-1.958l-1.033-2.016
			l-0.937-2.069l-0.836-2.127l-0.736-2.167l-0.632-2.226l-0.522-2.266l-0.411-2.299l-0.298-2.343l-0.179-2.368L1.284,47.779
			L1.284,47.779z M18.204,49.53l-0.021-0.415l0.146,1.943l-0.044-0.431l0.244,1.916l-0.063-0.417l0.336,1.887L18.719,53.6
			l0.427,1.854l-0.106-0.416l0.517,1.819l-0.124-0.399l0.603,1.778l-0.142-0.387l0.685,1.742l-0.163-0.388l0.767,1.695l-0.175-0.362
			l0.845,1.65l-0.199-0.367l0.922,1.603l-0.207-0.342l0.995,1.556l-0.233-0.345l1.069,1.501l-0.236-0.315l1.136,1.447l-0.259-0.314
			l1.204,1.388l-0.273-0.299l1.268,1.329l-0.283-0.281l1.329,1.269l-0.305-0.277l1.392,1.202l-0.3-0.246l1.445,1.138l-0.33-0.248
			l1.501,1.065l-0.339-0.228l1.553,0.996l-0.34-0.208l1.603,0.923l-0.361-0.196l1.651,0.847l-0.373-0.18l1.696,0.766l-0.38-0.16
			l1.739,0.687l-0.399-0.146l1.78,0.602l-0.386-0.121l1.815,0.518l-0.417-0.107l1.853,0.428l-0.413-0.086l1.885,0.338l-0.417-0.063
			l1.917,0.244l-0.432-0.045l1.943,0.147l-0.416-0.021l1.968,0.05h-0.433l1.969-0.05l-0.416,0.021l1.943-0.147l-0.433,0.045
			l1.919-0.244l-0.418,0.063l1.885-0.338l-0.41,0.086l1.85-0.428l-0.414,0.107l1.817-0.518l-0.39,0.122l1.777-0.602l-0.392,0.144
			l1.739-0.687l-0.386,0.163l1.694-0.766l-0.37,0.179l1.651-0.847l-0.359,0.196l1.6-0.923l-0.338,0.208l1.553-0.996l-0.338,0.228
			l1.502-1.065l-0.328,0.244l1.446-1.138l-0.308,0.253l1.39-1.201l-0.3,0.273l1.329-1.269l-0.282,0.281l1.267-1.329l-0.272,0.299
			l1.204-1.388l-0.256,0.308l1.137-1.445l-0.242,0.326l1.066-1.502l-0.229,0.34l0.996-1.556l-0.207,0.342l0.924-1.603l-0.199,0.361
			l0.848-1.653l-0.178,0.371l0.768-1.695l-0.165,0.388l0.686-1.742l-0.143,0.394l0.601-1.777l-0.121,0.392l0.517-1.819l-0.107,0.416
			l0.429-1.854l-0.085,0.414l0.335-1.887l-0.062,0.417l0.242-1.916l-0.042,0.431l0.146-1.943l-0.021,0.415l0.052-1.967v0.433
			l-0.052-1.971l0.021,0.416l-0.146-1.945l0.042,0.432l-0.242-1.916l0.062,0.417l-0.335-1.885l0.085,0.412l-0.429-1.852l0.107,0.416
			l-0.517-1.815l0.119,0.385l-0.6-1.78l0.146,0.399l-0.686-1.739l0.161,0.38l-0.767-1.697l0.179,0.375l-0.848-1.652l0.199,0.361
			l-0.924-1.603l0.207,0.34l-0.996-1.553l0.229,0.338l-1.066-1.501l0.246,0.331l-1.137-1.446l0.248,0.301l-1.203-1.392l0.275,0.305
			l-1.267-1.329l0.282,0.282l-1.329-1.268l0.3,0.273l-1.39-1.203l0.313,0.258l-1.446-1.135l0.314,0.236l-1.498-1.069l0.343,0.233
			l-1.553-0.995l0.338,0.207l-1.6-0.922l0.365,0.199l-1.65-0.845l0.363,0.175l-1.694-0.767l0.386,0.163l-1.739-0.685l0.385,0.141
			l-1.777-0.603l0.396,0.125l-1.817-0.518l0.414,0.106l-1.85-0.427l0.41,0.084l-1.885-0.336l0.418,0.063l-1.919-0.244l0.433,0.043
			l-1.943-0.146l0.416,0.021l-1.969-0.051h0.433l-1.968,0.051l0.416-0.021l-1.943,0.146l0.432-0.043l-1.917,0.244l0.417-0.063
			l-1.885,0.336l0.413-0.084l-1.853,0.427l0.417-0.107l-1.815,0.518l0.393-0.123l-1.779,0.602l0.391-0.143l-1.739,0.685l0.38-0.16
			l-1.696,0.766l0.367-0.176l-1.651,0.845l0.367-0.199l-1.603,0.922l0.34-0.207l-1.553,0.995l0.345-0.233l-1.501,1.069l0.32-0.239
			l-1.445,1.136l0.306-0.252l-1.392,1.203l0.305-0.277l-1.329,1.268l0.283-0.282l-1.268,1.329l0.276-0.305l-1.203,1.392l0.252-0.306
			l-1.136,1.446l0.239-0.32l-1.069,1.501l0.233-0.344l-0.995,1.553l0.207-0.34l-0.922,1.603l0.199-0.367l-0.845,1.65l0.177-0.367
			l-0.767,1.697l0.161-0.38l-0.685,1.739l0.143-0.391l-0.603,1.78l0.123-0.393l-0.518,1.815l0.107-0.416l-0.427,1.852l0.084-0.412
			l-0.336,1.885l0.063-0.417l-0.244,1.916l0.044-0.432l-0.146,1.945l0.021-0.416l-0.051,1.971v-0.433L18.204,49.53L18.204,49.53z"/>
		<g id="XMLID_1940_">
			<defs>
				<path id="XMLID_1989_" d="M45.184-2.498c3.7-0.279,55.789,27.719,59.374,48.461c5.834,33.786-42.025,25.538-40.992,27.65
					c-4.56,2.541-9.807,3.998-15.395,3.998c-4.193,0-8.191-0.823-11.852-2.305c0.75-0.901-10.991,6.607-18.79-1.433
					C7.042,63.065-0.437,35.166,0.021,25.533C1.002,4.878,41.69-2.236,45.184-2.498z"/>
			</defs>
			<clipPath id="XMLID_3_">
				<use xlink:href="#XMLID_1989_"  overflow="visible"/>
			</clipPath>
			<g id="XMLID_1986_" clip-path="url(#XMLID_3_)">
				<g id="XMLID_1985_">
					<g id="XMLID_872_">
						<path id="XMLID_1735_" fill="#BFCBE6" d="M35.134,28.612c0,0,2.511,1.77,2.791,2.345c0.278,0.575,0.557,1.825-0.489,2.159
							c-1.046,0.333-2.162-0.167-2.302-1.584C34.995,30.117,35.134,28.612,35.134,28.612z"/>
						<path id="XMLID_1736_" fill="#4165B0" d="M36.816,33.287c-0.348,0-0.679-0.092-0.955-0.275
							c-0.458-0.301-0.733-0.809-0.799-1.472c-0.139-1.408-0.001-2.919,0-2.934l0.011-0.125l0.103,0.071
							c0.103,0.073,2.53,1.788,2.814,2.374c0.212,0.438,0.382,1.136,0.157,1.66c-0.124,0.292-0.356,0.492-0.688,0.598
							C37.243,33.253,37.026,33.287,36.816,33.287z M35.195,28.745c-0.029,0.39-0.104,1.623,0.01,2.781
							c0.061,0.618,0.315,1.091,0.735,1.367c0.407,0.268,0.945,0.325,1.474,0.155c0.291-0.092,0.493-0.266,0.6-0.518
							c0.22-0.51,0.007-1.208-0.155-1.54C37.623,30.503,35.67,29.084,35.195,28.745z"/>
					</g>
					<g id="XMLID_871_">
						<path id="XMLID_1937_" fill="#D3CEDE" d="M38.181,24.65c0,0,9.425,2.981,8.752-3.847c0,0-0.118-3.75-6.021-3.366
							c0,0,0.507-3.558-4.285-2.981c0,0-0.37-2.211-3.447-1.539c0,0,0.192-3.75-3.461-3.75c-3.654,0-3.457,1.924-3.457,1.924
							s-1.563-4.04-4.438-3.944c-2.875,0.096-7.204,0.963-7.011,5.771c0,0-1.634-2.518-5.192-0.586c0,0-2.116,1.74-1.54,4.625
							c0,0-5.096-0.786-5.386,3.212c-0.288,4,1.945,4.483,3.559,4.385c0,0,0.946-0.603,1.675-0.054
							c0.729,0.548,5.153,3.419,9.288,0.054c0,0,6.829,5.097,11.348,0.096C28.564,24.65,35.007,28.689,38.181,24.65z"/>
					</g>
					<g id="XMLID_870_">
						<path id="XMLID_1731_" fill="#BFCBE6" d="M24.77,28.612c0,0,2.511,1.77,2.791,2.345c0.279,0.575,0.557,1.825-0.489,2.159
							c-1.046,0.333-2.162-0.167-2.302-1.584C24.63,30.117,24.77,28.612,24.77,28.612z"/>
						<path id="XMLID_1732_" fill="#4165B0" d="M26.451,33.287c-0.348,0-0.679-0.092-0.955-0.275
							c-0.458-0.301-0.733-0.809-0.799-1.472c-0.139-1.408-0.002-2.919,0-2.934l0.011-0.125l0.103,0.071
							c0.103,0.073,2.53,1.788,2.813,2.374c0.213,0.438,0.382,1.136,0.157,1.66c-0.124,0.292-0.356,0.492-0.688,0.598
							C26.877,33.253,26.661,33.287,26.451,33.287z M24.831,28.745c-0.029,0.39-0.104,1.623,0.01,2.781
							c0.062,0.618,0.315,1.091,0.734,1.367c0.407,0.268,0.947,0.325,1.475,0.155c0.291-0.092,0.492-0.266,0.601-0.518
							c0.219-0.51,0.005-1.208-0.155-1.54C27.258,30.503,25.305,29.084,24.831,28.745z"/>
					</g>
					<g id="XMLID_869_">
						<path id="XMLID_1727_" fill="#BFCBE6" d="M20.331,33.569c0,0,2.511,1.772,2.791,2.347c0.279,0.576,0.558,1.825-0.488,2.159
							c-1.047,0.333-2.163-0.167-2.302-1.583C20.191,35.074,20.331,33.569,20.331,33.569z"/>
						<path id="XMLID_1728_" fill="#4165B0" d="M22.012,38.245c-0.348,0-0.678-0.093-0.955-0.276
							c-0.457-0.3-0.732-0.809-0.798-1.472c-0.137-1.406-0.001-2.918,0-2.934l0.012-0.123l0.102,0.07
							c0.103,0.074,2.53,1.789,2.814,2.374c0.213,0.439,0.382,1.137,0.158,1.66c-0.125,0.293-0.357,0.493-0.689,0.6
							C22.44,38.21,22.223,38.245,22.012,38.245z M20.392,33.703c-0.028,0.389-0.104,1.623,0.01,2.78
							c0.062,0.618,0.315,1.09,0.735,1.367c0.407,0.268,0.945,0.325,1.475,0.156c0.291-0.093,0.493-0.267,0.601-0.519
							c0.218-0.511,0.005-1.208-0.155-1.539C22.82,35.46,20.866,34.042,20.392,33.703z"/>
					</g>
					<g id="XMLID_868_">
						<path id="XMLID_1549_" fill="#BFCBE6" d="M13.779,28.612c0,0,2.512,1.77,2.791,2.345c0.278,0.575,0.557,1.825-0.489,2.159
							c-1.046,0.333-2.162-0.167-2.302-1.584C13.64,30.117,13.779,28.612,13.779,28.612z"/>
						<path id="XMLID_1550_" fill="#4165B0" d="M15.46,33.287c-0.348,0-0.678-0.092-0.955-0.275
							c-0.457-0.301-0.733-0.809-0.798-1.472c-0.138-1.408-0.001-2.919,0-2.934l0.011-0.125l0.102,0.071
							c0.104,0.073,2.531,1.788,2.814,2.374c0.213,0.438,0.382,1.136,0.158,1.659c-0.125,0.292-0.356,0.493-0.688,0.599
							C15.888,33.253,15.671,33.287,15.46,33.287z M13.84,28.745c-0.029,0.39-0.104,1.623,0.01,2.781
							c0.061,0.618,0.315,1.091,0.735,1.367c0.406,0.268,0.944,0.325,1.475,0.155c0.291-0.092,0.492-0.266,0.6-0.519
							c0.22-0.509,0.007-1.207-0.154-1.539C16.268,30.503,14.314,29.084,13.84,28.745z"/>
					</g>
					<g id="XMLID_702_">
						<path id="XMLID_1543_" fill="#BFCBE6" d="M18.02,24.133c0,0,2.511,1.771,2.792,2.345c0.279,0.575,0.558,1.825-0.489,2.158
							c-1.046,0.333-2.163-0.167-2.303-1.583C17.88,25.637,18.02,24.133,18.02,24.133z"/>
						<path id="XMLID_1544_" fill="#4165B0" d="M19.702,28.808c-0.349,0-0.68-0.094-0.956-0.276c-0.457-0.3-0.733-0.809-0.798-1.472
							c-0.139-1.408-0.002-2.92,0-2.935l0.011-0.124l0.102,0.072c0.103,0.072,2.53,1.789,2.814,2.373
							c0.213,0.439,0.383,1.137,0.158,1.659c-0.125,0.292-0.357,0.494-0.689,0.6C20.129,28.773,19.912,28.808,19.702,28.808z
							 M18.081,24.265c-0.028,0.39-0.104,1.623,0.011,2.781c0.061,0.618,0.314,1.09,0.734,1.366
							c0.407,0.267,0.944,0.324,1.475,0.156c0.291-0.093,0.493-0.268,0.601-0.52c0.22-0.511,0.006-1.208-0.155-1.54
							C20.509,26.022,18.555,24.604,18.081,24.265z"/>
					</g>
					<g id="XMLID_701_">
						<path id="XMLID_1401_" fill="#BFCBE6" d="M7.418,24.133c0,0,2.511,1.771,2.791,2.345c0.279,0.575,0.558,1.825-0.488,2.158
							c-1.046,0.333-2.163-0.167-2.303-1.583C7.279,25.637,7.418,24.133,7.418,24.133z"/>
						<path id="XMLID_1403_" fill="#4165B0" d="M9.101,28.808c-0.349,0-0.68-0.094-0.956-0.276c-0.457-0.3-0.733-0.809-0.798-1.472
							c-0.139-1.408-0.001-2.92,0-2.935l0.011-0.124l0.102,0.072c0.104,0.072,2.531,1.789,2.815,2.373
							c0.212,0.439,0.382,1.137,0.158,1.659c-0.125,0.292-0.358,0.494-0.69,0.6C9.528,28.773,9.311,28.808,9.101,28.808z
							 M7.48,24.265c-0.029,0.39-0.104,1.623,0.01,2.781c0.061,0.618,0.315,1.09,0.734,1.366c0.407,0.267,0.943,0.324,1.474,0.156
							c0.292-0.093,0.494-0.268,0.601-0.52c0.22-0.511,0.006-1.208-0.154-1.54C9.908,26.022,7.955,24.604,7.48,24.265z"/>
					</g>
					<g id="XMLID_662_">
						<path id="XMLID_1161_" fill="#BFCBE6" d="M31.113,33.569c0,0,2.511,1.772,2.791,2.347c0.279,0.576,0.557,1.825-0.489,2.159
							c-1.046,0.333-2.162-0.167-2.302-1.583C30.974,35.074,31.113,33.569,31.113,33.569z"/>
						<path id="XMLID_1353_" fill="#4165B0" d="M32.794,38.245c-0.348,0-0.679-0.093-0.956-0.276
							c-0.457-0.3-0.732-0.809-0.798-1.472c-0.139-1.406-0.002-2.918,0-2.934l0.011-0.123l0.103,0.07
							c0.103,0.074,2.53,1.789,2.813,2.374c0.213,0.439,0.382,1.137,0.158,1.66c-0.125,0.293-0.357,0.493-0.688,0.6
							C33.222,38.21,33.005,38.245,32.794,38.245z M31.174,33.703c-0.029,0.389-0.104,1.623,0.01,2.78
							c0.062,0.618,0.315,1.09,0.734,1.367c0.406,0.268,0.946,0.325,1.475,0.156c0.291-0.093,0.493-0.267,0.601-0.519
							c0.218-0.511,0.005-1.208-0.156-1.539C33.602,35.46,31.648,34.042,31.174,33.703z"/>
					</g>
					<g id="XMLID_660_">
						<path id="XMLID_957_" fill="#BFCBE6" d="M29.559,24.133c0,0,2.512,1.771,2.792,2.345c0.279,0.575,0.558,1.825-0.488,2.158
							c-1.047,0.333-2.163-0.167-2.303-1.583C29.42,25.637,29.559,24.133,29.559,24.133z"/>
						<path id="XMLID_958_" fill="#4165B0" d="M31.24,28.808c-0.348,0-0.679-0.094-0.955-0.276c-0.457-0.3-0.732-0.81-0.798-1.472
							c-0.139-1.408-0.001-2.92,0-2.935l0.012-0.124l0.102,0.072c0.103,0.072,2.529,1.789,2.813,2.373
							c0.213,0.439,0.382,1.137,0.159,1.66c-0.125,0.292-0.358,0.493-0.69,0.6C31.667,28.773,31.451,28.808,31.24,28.808z
							 M29.62,24.265c-0.028,0.39-0.103,1.623,0.01,2.781c0.062,0.618,0.315,1.09,0.734,1.366c0.408,0.267,0.946,0.323,1.475,0.156
							c0.291-0.093,0.492-0.268,0.601-0.52c0.219-0.51,0.005-1.208-0.155-1.54C32.048,26.022,30.094,24.604,29.62,24.265z"/>
					</g>
					<g id="XMLID_658_">
						<path id="XMLID_947_" fill="#BFCBE6" d="M39.635,24.547c0,0,2.511,1.77,2.791,2.345c0.28,0.576,0.558,1.826-0.489,2.159
							c-1.046,0.333-2.162-0.167-2.302-1.583C39.495,26.051,39.635,24.547,39.635,24.547z"/>
						<path id="XMLID_948_" fill="#4165B0" d="M41.316,29.222c-0.348,0-0.679-0.093-0.955-0.275
							c-0.458-0.301-0.733-0.81-0.798-1.472c-0.139-1.407-0.002-2.919,0-2.935l0.011-0.124l0.103,0.072
							c0.103,0.073,2.53,1.788,2.814,2.373c0.213,0.439,0.382,1.137,0.157,1.66c-0.124,0.292-0.357,0.493-0.688,0.599
							C41.743,29.188,41.527,29.222,41.316,29.222z M39.696,24.68c-0.029,0.39-0.104,1.623,0.01,2.78
							c0.062,0.617,0.315,1.09,0.735,1.366c0.407,0.268,0.945,0.325,1.475,0.156c0.291-0.093,0.492-0.268,0.601-0.519
							c0.219-0.511,0.006-1.208-0.156-1.54C42.124,26.437,40.17,25.019,39.696,24.68z"/>
					</g>
				</g>
				<g id="XMLID_470_">
					<g id="XMLID_878_">
						<path id="XMLID_1746_" fill="#FDB829" d="M35.195,63.424l-0.76-1.051l-8.175,3.87c0,0-4.562,1.711-1.806,5.987
							c0,0,1.9,2.853,6.654-0.854c0,0,0.57-1.522-0.856-1.046c0,0-2.187,1.616-3.042,1.616c-0.855,0-3.136-1.522-1.425-3.612
							L35.195,63.424z"/>
						<path id="XMLID_1749_" fill="#CF8729" d="M26.77,73.352c-0.194,0-0.384-0.016-0.57-0.047
							c-1.235-0.199-1.783-0.999-1.805-1.035c-0.846-1.313-1.095-2.521-0.741-3.59c0.574-1.733,2.561-2.497,2.582-2.504l8.222-3.892
							l0.844,1.164l-0.073,0.039l-9.397,4.902c-0.603,0.741-0.75,1.493-0.427,2.173c0.379,0.802,1.323,1.313,1.806,1.313
							c0.824,0,2.978-1.588,3-1.603l0.019-0.011c0.432-0.143,0.737-0.124,0.909,0.056c0.314,0.325,0.047,1.053,0.036,1.083
							l-0.007,0.018l-0.016,0.015C29.516,72.707,28.045,73.352,26.77,73.352z M34.411,62.464l-8.121,3.842
							c-0.025,0.012-1.95,0.751-2.501,2.418c-0.34,1.028-0.096,2.194,0.725,3.47c0.004,0.007,0.539,0.784,1.713,0.973
							c1.354,0.217,2.977-0.4,4.82-1.833c0.071-0.203,0.19-0.707-0.012-0.918c-0.13-0.135-0.382-0.143-0.75-0.021
							c-0.176,0.129-2.225,1.623-3.075,1.623c-0.532,0-1.526-0.53-1.936-1.394c-0.244-0.513-0.362-1.336,0.455-2.337l0.022-0.017
							l9.337-4.871L34.411,62.464z"/>
					</g>
					<g id="XMLID_934_">
						<path id="XMLID_1815_" fill="#F9AA7F" d="M41.563,68.334l-0.665-11.122c0,0,1.141-0.475,1.141,0c0,0.477,0,1.425,0,1.425
							s0-2.564,0.571-2.186c0.57,0.381,1.235,0.761,1.235,0.761l0.57,0.761v1.046v5.418L41.563,68.334z"/>
						<path id="XMLID_1831_" fill="#D05B33" d="M41.503,68.535l-0.679-11.368l0.047-0.019c0.085-0.038,0.846-0.346,1.128-0.157
							c0.038,0.025,0.067,0.06,0.085,0.1c0.064-0.351,0.163-0.642,0.313-0.721c0.055-0.031,0.143-0.05,0.252,0.023
							c0.561,0.375,1.224,0.755,1.23,0.759l0.022,0.018l0.584,0.78v6.51l-0.013,0.018L41.503,68.535z M40.972,57.259l0.651,10.874
							l2.72-3.721v-6.414l-0.547-0.73c-0.095-0.056-0.704-0.406-1.227-0.757c-0.055-0.035-0.086-0.027-0.106-0.016
							c-0.257,0.137-0.354,1.39-0.354,2.142h-0.143v-1.425c0-0.062-0.026-0.088-0.047-0.103
							C41.764,57.005,41.275,57.14,40.972,57.259z"/>
					</g>
					<g id="XMLID_933_">
						<path id="XMLID_1811_" fill="#EC2624" d="M77.491,68.999c0,0-3.211-9.03-7.024-9.791c0,0,0.064-9.726-6.863-10.045
							c0,0-1.57-9.441-8.115-10.486c0,0,2.393-10.185-2.678-13.701c0,0,23.019-1.005,34.685,10.862
							C87.495,35.838,85.19,62.949,77.491,68.999z"/>
						<path id="XMLID_1812_" fill="#A71E22" d="M77.354,69.469l-0.132-0.375c-0.032-0.088-3.201-8.887-6.812-9.606l-0.232-0.044
							l0.002-0.236c0-0.096-0.018-9.456-6.59-9.758l-0.231-0.01l-0.037-0.228c-0.015-0.092-1.613-9.253-7.878-10.254l-0.303-0.048
							l0.068-0.298c0.025-0.101,2.289-10.037-2.563-13.403l-0.694-0.482l0.846-0.037c0.226-0.011,23.28-0.874,34.9,10.948
							l0.091,0.093l-0.011,0.131c-0.095,1.111-2.403,27.302-10.111,33.36L77.354,69.469z M70.747,58.982
							c3.41,0.949,6.216,7.813,6.872,9.54c7.008-6.144,9.395-30.562,9.581-32.577c-10.263-10.325-29.479-10.74-33.595-10.7
							c3.966,3.594,2.569,11.544,2.226,13.203c5.942,1.193,7.729,8.982,8.013,10.448C70.143,49.373,70.699,57.509,70.747,58.982z"/>
					</g>
					<g id="XMLID_931_">
						<polygon id="XMLID_1939_" fill="#3B1F22" points="77.491,42.194 35.195,63.424 34.435,62.373 76.637,41.434 						"/>
					</g>
					<g id="XMLID_929_">
						<path id="XMLID_1805_" fill="#F9AA7F" d="M51.354,39.438c0,0-0.855,3.232-0.761,4.468c0.096,1.235-1.901,1.995-1.901,1.995
							s0.95,1.142,0.854,1.713c-0.094,0.569-0.189,1.14,0.478,1.14c0.665,0,0,0.41,0,0.41s-0.762,0.35-0.478,0.636
							c0.285,0.285,0.478,2.091,0.478,2.091s2.186,0.475,2.755,0.475c0.572,0,0,1.617,0,1.617l-0.665,1.044h5.596
							c0,0,0-2.851,1.343-3.231c0.737-0.208,3.326-4.181,3.232-5.703c-0.096-1.521-1.996-8.746-7.414-7.795
							C49.452,39.247,51.354,39.438,51.354,39.438z"/>
						<path id="XMLID_1808_" fill="#D05B33" d="M57.781,55.098h-5.799l0.736-1.153c0.105-0.307,0.36-1.195,0.181-1.447
							c-0.027-0.042-0.067-0.06-0.12-0.06c-0.57,0-2.683-0.459-2.773-0.478l-0.05-0.011l-0.005-0.052
							c-0.052-0.496-0.235-1.829-0.455-2.047c-0.087-0.088-0.092-0.175-0.081-0.234c0.048-0.268,0.524-0.491,0.576-0.517
							c0.131-0.08,0.258-0.198,0.255-0.24l0,0c0,0-0.032-0.034-0.223-0.034c-0.225,0-0.383-0.06-0.484-0.18
							c-0.198-0.235-0.13-0.646-0.063-1.044c0.072-0.443-0.582-1.345-0.84-1.654l-0.065-0.077l0.094-0.037
							c0.021-0.006,1.946-0.755,1.856-1.923c-0.088-1.141,0.609-3.901,0.742-4.413c-0.138-0.023-0.3-0.074-0.307-0.193
							c-0.004-0.126-0.014-0.392,3.901-1.078c1.504-0.263,2.865,0.073,4.047,1.005c2.396,1.889,3.38,5.739,3.45,6.855
							c0.095,1.526-2.51,5.557-3.284,5.776c-1.276,0.361-1.29,3.135-1.29,3.162V55.098z M52.242,54.956h5.396
							c0.01-0.458,0.119-2.87,1.395-3.229c0.631-0.179,3.274-4.094,3.178-5.632c-0.066-1.098-1.037-4.892-3.396-6.75
							c-1.148-0.906-2.471-1.234-3.934-0.977c-3.403,0.597-3.755,0.868-3.781,0.938c0.017,0.013,0.144,0.05,0.261,0.062l0.083,0.008
							l-0.023,0.081c-0.008,0.031-0.851,3.234-0.759,4.443c0.089,1.134-1.455,1.864-1.855,2.033
							c0.214,0.269,0.896,1.177,0.811,1.693c-0.062,0.365-0.124,0.744,0.029,0.928c0.075,0.087,0.197,0.128,0.377,0.128
							c0.137,0,0.325,0.016,0.36,0.142c0.044,0.154-0.212,0.333-0.325,0.402c-0.185,0.087-0.477,0.271-0.503,0.415
							c-0.004,0.026-0.004,0.063,0.041,0.109c0.276,0.274,0.454,1.745,0.49,2.083c0.33,0.069,2.184,0.461,2.692,0.461
							c0.101,0,0.182,0.043,0.237,0.121c0.254,0.358-0.127,1.467-0.171,1.592L52.242,54.956z"/>
					</g>
					<g id="XMLID_928_">
						<path id="XMLID_1807_" fill="#4D1D1C" d="M54.115,43.727l-0.142-0.025c0.306-1.725-1.188-2.723-1.201-2.733l0.075-0.12
							C52.866,40.859,54.436,41.908,54.115,43.727z"/>
					</g>
					<g id="XMLID_927_">
						<path id="XMLID_1806_" fill="#A71E22" d="M56.153,39.255l-0.382-0.423c0.099-0.089,10.199-8.932,31.772-3.078l-0.151,0.549
							C66.121,30.533,56.251,39.168,56.153,39.255z"/>
					</g>
					<g id="XMLID_926_">
						<path id="XMLID_1801_" fill="#B92A26" d="M59.338,53.126c0,0-1.237-0.667,0.95-0.951c2.186-0.285,10.454-1.711,5.798-13.308
							c0,0-0.856-2.375-5.229-2.471c-4.371-0.095-11.501-3.953-12.925,5.513c0,0,9.884-1.616,10.645-0.38
							c0,0-3.706,1.046-2.376,6.275c0,0,2.66-2.664,3.802-1.332c1.14,1.332-1.142,1.997-1.426,3.707
							C58.292,51.89,58.196,52.746,59.338,53.126z"/>
						<path id="XMLID_1802_" fill="#68201E" d="M59.315,53.193c-1.189-0.395-1.096-1.311-0.81-3.025
							c0.123-0.742,0.609-1.289,1.036-1.771c0.572-0.647,1.025-1.156,0.405-1.88c-0.188-0.219-0.431-0.335-0.729-0.347
							c-0.016,0-0.034,0-0.051,0c-1.22,0-2.899,1.664-2.917,1.684l-0.09,0.088l-0.029-0.123c-1.208-4.744,1.733-6.105,2.325-6.325
							c-0.911-0.86-7.849,0.048-10.514,0.484l-0.096,0.016l0.014-0.097c0.403-2.676,1.277-4.465,2.671-5.463
							c2.022-1.451,4.825-0.95,7.299-0.508c1.09,0.195,2.116,0.379,3.029,0.399c4.37,0.095,5.285,2.493,5.294,2.518
							c1.689,4.208,1.855,7.525,0.491,9.858c-0.785,1.342-2.526,3.047-6.348,3.545c-1.026,0.133-1.214,0.34-1.235,0.451
							c-0.025,0.146,0.22,0.317,0.309,0.367L59.315,53.193z M59.168,46.027c0.019,0,0.039,0.001,0.057,0.001
							c0.338,0.013,0.616,0.146,0.832,0.396c0.7,0.817,0.16,1.427-0.409,2.066c-0.413,0.468-0.884,1-1.001,1.698
							c-0.246,1.479-0.341,2.262,0.313,2.685c-0.032-0.063-0.051-0.131-0.036-0.205c0.049-0.266,0.492-0.452,1.354-0.565
							c3.767-0.49,5.475-2.16,6.245-3.476c1.34-2.292,1.171-5.566-0.503-9.734c-0.012-0.026-0.897-2.333-5.163-2.426
							c-0.924-0.021-1.957-0.206-3.052-0.401c-2.443-0.437-5.217-0.933-7.19,0.483c-1.345,0.964-2.194,2.689-2.598,5.273
							c1.087-0.175,9.878-1.542,10.621-0.332l0.049,0.079l-0.091,0.027c-0.146,0.042-3.57,1.074-2.355,6.07
							C56.612,47.312,58.04,46.027,59.168,46.027z"/>
					</g>
					<g id="XMLID_925_">
						<path id="XMLID_1797_" fill="#E88941" d="M87.685,36.358c0,0,9.196-5.285,5.395-3.575c-3.802,1.71-6.273,2.75-6.273,2.75
							L87.685,36.358z"/>
						<path id="XMLID_1798_" fill="#D8752D" d="M87.675,36.447l-0.039-0.037l-0.957-0.898l0.1-0.042
							c0.025-0.011,2.514-1.06,6.271-2.751c0.948-0.427,0.975-0.371,1.015-0.299c0.048,0.095,0.099,0.194-3.145,2.127
							c-1.573,0.94-3.183,1.865-3.198,1.874L87.675,36.447z M86.935,35.557l0.759,0.713c2.229-1.281,5.449-3.186,6.118-3.714
							c-0.121,0.042-0.336,0.128-0.702,0.292C89.773,34.349,87.438,35.345,86.935,35.557z"/>
					</g>
					<g id="XMLID_923_">
						<path id="XMLID_1786_" fill="#F9AA7F" d="M45.84,59.59l0.57,4.276c0,0-5.893,1.142-8.744-2.14
							c-2.852-3.279-5.797-6.891-6.938-8.601c0,0-5.894-0.286-6.75-0.667c-0.855-0.379,0.191-0.949,0.951-0.949
							c0.76,0-3.897-2.091-4.087-3.041c-0.19-0.951,2.376,0.538,2.661,0.694c0.285,0.16-2.281-1.55-2.281-1.55s-0.95-0.856,1.521,0
							c2.471,0.855,1.996,0.855,1.996,0.855s-0.475-0.381-1.996-1.237c-1.521-0.855-0.05-0.879,1.9,0
							c0.506,0.229,1.997,0.856,2.281,0.951c0.566,0.188,1.164,0.331,1.741,0.488c0.744,0.203,1.423,0.171,1.965,0.781
							c0.742,0.841,1.468,1.694,2.22,2.527c1.523,1.684,3.056,3.372,4.732,4.901c0.446,0.406,0.924,0.773,1.389,1.156
							c0.323,0.267,0.633,0.634,1,0.838c0.62,0.348,1.477,0.378,2.162,0.427C44.7,59.492,45.84,59.59,45.84,59.59z"/>
						<path id="XMLID_1787_" fill="#D05B33" d="M44.08,64.122c-1.985,0-4.771-0.396-6.468-2.347c-3.069-3.531-5.844-6.97-6.923-8.58
							c-0.541-0.025-5.907-0.3-6.739-0.67c-0.342-0.151-0.382-0.33-0.355-0.453c0.073-0.346,0.767-0.623,1.308-0.634
							c-0.158-0.139-0.7-0.452-1.185-0.733c-1.26-0.731-2.827-1.641-2.945-2.223c-0.039-0.194,0.031-0.29,0.095-0.335
							c0.213-0.153,0.754-0.021,1.622,0.398c-0.423-0.285-0.91-0.611-1.305-0.873c-0.074-0.065-0.277-0.267-0.19-0.413
							c0.076-0.128,0.344-0.211,1.773,0.286c0.388,0.135,0.703,0.247,0.96,0.342c-0.271-0.163-0.606-0.361-1.019-0.595
							c-0.522-0.293-0.729-0.504-0.65-0.661c0.159-0.313,1.48,0.023,2.616,0.535c0.508,0.23,1.994,0.854,2.274,0.948
							c0.398,0.133,0.82,0.244,1.228,0.352c0.17,0.046,0.341,0.089,0.509,0.135c0.184,0.052,0.365,0.087,0.541,0.123
							c0.533,0.105,1.038,0.206,1.459,0.681c0.292,0.331,0.582,0.665,0.872,0.997c0.438,0.505,0.893,1.025,1.348,1.53
							c1.41,1.559,3.008,3.327,4.726,4.895c0.314,0.286,0.649,0.558,0.974,0.819c0.137,0.111,0.275,0.223,0.412,0.337
							c0.112,0.092,0.223,0.199,0.333,0.3c0.207,0.197,0.423,0.399,0.656,0.528c0.554,0.312,1.3,0.362,1.959,0.409l0.173,0.012
							c2.537,0.188,3.696,0.284,3.708,0.286l0.057,0.004l0.008,0.056l0.581,4.345l-0.067,0.013
							C46.399,63.939,45.423,64.122,44.08,64.122z M21.11,48.223c-0.085,0-0.133,0.02-0.16,0.038
							c-0.016,0.014-0.067,0.049-0.039,0.194c0.103,0.518,1.773,1.486,2.876,2.126c1.081,0.626,1.329,0.787,1.293,0.919
							c-0.014,0.056-0.065,0.081-0.152,0.081c-0.518,0-1.144,0.272-1.196,0.519c-0.027,0.131,0.135,0.233,0.275,0.296
							c0.833,0.369,6.664,0.655,6.724,0.661l0.035,0.002l0.021,0.027c1.061,1.595,3.847,5.047,6.932,8.596
							c2.631,3.025,7.955,2.236,8.61,2.126l-0.554-4.153c-0.261-0.021-1.425-0.114-3.648-0.281l-0.173-0.012
							c-0.674-0.045-1.437-0.099-2.019-0.424c-0.249-0.14-0.471-0.349-0.685-0.551c-0.112-0.105-0.218-0.204-0.325-0.294
							c-0.137-0.112-0.274-0.224-0.412-0.335c-0.327-0.265-0.664-0.534-0.98-0.825c-1.723-1.571-3.324-3.343-4.736-4.904
							c-0.457-0.507-0.911-1.026-1.349-1.533c-0.291-0.331-0.58-0.665-0.873-0.994c-0.389-0.44-0.848-0.532-1.379-0.638
							c-0.177-0.035-0.361-0.073-0.549-0.123c-0.168-0.047-0.337-0.091-0.508-0.135c-0.41-0.109-0.833-0.22-1.236-0.354
							c-0.283-0.094-1.778-0.724-2.289-0.955c-1.385-0.623-2.367-0.722-2.429-0.599c-0.001,0.001-0.017,0.13,0.594,0.473
							c0.847,0.477,1.369,0.807,1.667,1.005c0.418,0.185,0.408,0.241,0.4,0.289c-0.008,0.047-0.049,0.076-0.106,0.076h-0.025
							l-0.02-0.016c-0.002-0.001-0.095-0.074-0.32-0.227c-0.274-0.118-0.768-0.311-1.655-0.617
							c-1.486-0.517-1.599-0.356-1.604-0.351c-0.016,0.027,0.054,0.14,0.154,0.229c1.574,1.05,2.1,1.399,2.262,1.54l0.006,0.005
							c0.073,0.065,0.063,0.083,0.048,0.108c-0.017,0.028-0.052,0.05-0.118,0.014l-0.055-0.029
							C21.983,48.39,21.372,48.223,21.11,48.223z"/>
					</g>
					<g id="XMLID_922_">
						<path id="XMLID_1778_" fill="#FEF6FA" d="M57.709,54.266c0,0,1.533,6.37-1.033,13.214c-2.566,6.842-2.756,13.779-2.471,14.065
							c0.285,0.284-11.977,2.472-17.299-5.037l13.118-22.242H57.709z"/>
						<path id="XMLID_1780_" fill="#2C5BA9" d="M49.936,82.132c-1.298,0-2.866-0.106-4.529-0.446
							c-3.818-0.781-6.698-2.512-8.559-5.136l-0.027-0.038l0.024-0.039l13.137-22.276h7.783l0.013,0.054
							c0.017,0.065,1.509,6.468-1.034,13.253c-2.586,6.893-2.718,13.693-2.487,13.993c0.023,0.022,0.031,0.055,0.02,0.087
							c-0.044,0.132-0.674,0.254-1.194,0.332C52.602,81.987,51.457,82.132,49.936,82.132z M36.99,76.504
							c2.702,3.778,7.146,4.993,10.405,5.348c3.527,0.382,6.384-0.143,6.728-0.313c-0.271-0.751,0.035-7.55,2.485-14.086
							c2.405-6.412,1.183-12.477,1.044-13.115h-7.59L36.99,76.504z"/>
					</g>
					<g id="XMLID_919_">
						<path id="XMLID_1773_" fill="#FEF6FA" d="M57.709,58.637c0,0,1.058,6.371-5.405,7.796c-6.464,1.426-4.769,0.57-4.769,0.57
							s-3.618-5.923-1.695-7.413c0,0,9.22-0.953,10.266-0.953S57.709,58.637,57.709,58.637z"/>
						<path id="XMLID_1774_" fill="#2C5BA9" d="M47.622,67.328c-0.312,0-0.337-0.065-0.353-0.113
							c-0.034-0.093,0.069-0.181,0.166-0.238c-0.407-0.682-3.504-5.999-1.638-7.444l0.015-0.012l0.021-0.002
							c0.375-0.04,9.234-0.951,10.272-0.951h1.662l0.01,0.059c0.013,0.064,0.996,6.451-5.458,7.877
							C49.313,67.166,48.112,67.328,47.622,67.328z M47.417,67.17c0.132,0.049,0.867,0.075,4.869-0.808
							c5.991-1.321,5.443-7.005,5.36-7.653h-1.541c-1.007,0-9.749,0.898-10.238,0.948c-1.814,1.457,1.691,7.25,1.729,7.308
							l0.041,0.065l-0.069,0.035C47.506,67.098,47.444,67.14,47.417,67.17z"/>
					</g>
					<g id="XMLID_911_">
						<path id="XMLID_1938_" fill="#2C5BA9" d="M45.84,59.59h-1.426c0,0,0.191,7.32,1.426,7.921l2.852-0.366
							C48.691,67.145,46.125,67.098,45.84,59.59z"/>
					</g>
					<g id="XMLID_909_">
						<path id="XMLID_1754_" fill="#2C5BA9" d="M58.164,54.266v1.807c0,0-5.575,1.614-5.86,2.564l-0.78-3.99l-2.769,1.768
							l2.769-2.148H58.164z"/>
						<path id="XMLID_1755_" fill="#213D78" d="M52.371,58.66l-0.139-0.007l-0.758-3.89l-2.682,1.711l-0.081-0.116l2.788-2.162
							h6.734v1.93l-0.05,0.015C56.642,56.587,52.596,57.91,52.371,58.66z M51.574,54.529l0.764,3.91
							c0.771-0.938,5.191-2.254,5.754-2.42v-1.682H51.55l-1.519,1.178L51.574,54.529z"/>
					</g>
					<g id="XMLID_904_">
						<path id="XMLID_1752_" fill="#2C5BA9" d="M51.523,54.266h-2.832l0.063,2.148c0,0-1.05,1.083,2.769-1.768"/>
						<path id="XMLID_1753_" fill="#213D78" d="M48.633,56.688c-0.033,0-0.046-0.015-0.06-0.028
							c-0.035-0.043-0.047-0.104,0.109-0.271l-0.065-2.191h2.906v0.142h-2.759l0.063,2.104l-0.022,0.023
							c-0.006,0.006-0.012,0.012-0.018,0.02c0.259-0.143,0.936-0.582,2.694-1.895l0.085,0.114
							C49.27,56.419,48.774,56.688,48.633,56.688z"/>
					</g>
					<g id="XMLID_876_">
						<path id="XMLID_1747_" fill="#A71E22" d="M70.614,59.453l-0.293-0.488c0.142-0.086,14.314-8.73,17.084-22.662l0.559,0.112
							C85.144,50.597,70.76,59.365,70.614,59.453z"/>
					</g>
					<g id="XMLID_874_">
						<path id="XMLID_1739_" fill="#EC2624" d="M78.252,68.334c0,0,1.521-8.744-1.996-10.457c0,0,1.046-8.449-3.328-11.259
							c0,0-1.52-13.74-11.5-14.69c0,0-0.7-7.509-9.904-6.749c0,0,23.878-9.41,35.853,10.355
							C87.376,35.534,95.835,55.501,78.252,68.334z"/>
						<path id="XMLID_1740_" fill="#A71E22" d="M77.849,68.98l0.122-0.696c0.015-0.085,1.443-8.553-1.84-10.149l-0.185-0.09
							l0.027-0.202c0.009-0.083,0.971-8.306-3.199-10.985l-0.114-0.072l-0.015-0.135C72.63,46.516,71.032,33.129,61.4,32.212
							l-0.234-0.022l-0.021-0.234c-0.028-0.296-0.796-7.224-9.596-6.491l-0.13-0.549c0.242-0.095,24.238-9.27,36.202,10.472
							c0.104,0.238,8.362,20.36-9.202,33.176L77.849,68.98z M76.561,57.718c2.905,1.666,2.355,7.869,2.075,9.974
							c16.477-12.568,8.561-31.85,8.478-32.046c-9.795-16.162-27.921-12.468-33.678-10.79c6.746,0.319,8.036,5.625,8.243,6.812
							c9.366,1.081,11.319,13.354,11.516,14.785C77.222,49.178,76.692,56.399,76.561,57.718z"/>
					</g>
					<g id="XMLID_657_">
						<path id="XMLID_1936_" fill="#4D1D1C" d="M51.443,43.285c0,0,1.22,0.19,1.284,1.237h-0.643L51.443,43.285z"/>
					</g>
					<g id="XMLID_656_">
						<path id="XMLID_468_" fill="#EC2624" d="M87.49,36.029c3.232,12.642-11.234,21.848-11.234,21.848"/>
						<path id="XMLID_943_" fill="#A71E22" d="M76.409,58.119l-0.307-0.481c0.144-0.091,14.256-9.244,11.112-21.539l0.552-0.141
							C91.012,48.654,76.556,58.025,76.409,58.119z"/>
					</g>
					<g id="XMLID_477_">
						<path id="XMLID_1935_" fill="#EC2624" stroke="#A71E22" d="M72.928,46.618"/>
					</g>
					<g id="XMLID_476_">
						<path id="XMLID_939_" fill="#A71E22" d="M73.28,47.039l-0.238-0.518c2.172-1.004,12.33-9.167,14.013-10.524
							C76.873,25.02,61.704,32.112,61.55,32.185l-0.245-0.514c0.157-0.075,15.914-7.44,26.375,4.166l0.202,0.224l-0.233,0.189
							C87.163,36.644,75.704,45.919,73.28,47.039z"/>
					</g>
					<g id="XMLID_473_">
						<path id="XMLID_938_" fill="#D05B33" d="M25.115,51.534c-0.122,0-0.186-0.011-0.186-0.011l0.002-0.027
							c0.009,0.002,0.871,0.136,2.463-0.627c1.601-0.767,2.94-0.618,2.955-0.618l-0.003,0.028c-0.015-0.002-1.345-0.146-2.939,0.617
							C26.233,51.459,25.451,51.534,25.115,51.534z"/>
					</g>
					<g id="XMLID_472_">
						<path id="XMLID_937_" fill="#D05B33" d="M23.942,49.324c-0.148,0-0.297-0.041-0.447-0.146l0.017-0.025
							c0.445,0.316,0.894,0.045,1.288-0.197c0.076-0.046,0.146-0.09,0.218-0.129c0.453-0.252,0.889-0.344,0.894-0.344l0.006,0.029
							c-0.004,0.001-0.438,0.089-0.887,0.34c-0.069,0.04-0.141,0.083-0.215,0.127C24.543,49.145,24.248,49.324,23.942,49.324z"/>
					</g>
				</g>
			</g>
		</g>
	</g>
</g>
</svg>
